<?xml version="1.0" standalone="no"?>
<!DOCTYPE svg PUBLIC "-//W3C//DTD SVG 20010904//EN"
 "http://www.w3.org/TR/2001/REC-SVG-20010904/DTD/svg10.dtd">
<svg version="1.0" xmlns="http://www.w3.org/2000/svg"
 width="5000.000000pt" height="4500.000000pt" viewBox="0 0 5120.000000 5120.000000"
 preserveAspectRatio="xMidYMid meet">

<g transform="translate(0.000000,5120.000000) scale(0.100000,-0.100000)"
fill="#4bbfe2" stroke="none">
<path d="M26320 44789 c-722 -13 -1524 -79 -2120 -175 -52 -8 -111 -17 -130
-20 -33 -5 -217 -36 -285 -48 -287 -52 -715 -144 -731 -157 -6 -5 -13 -7 -15
-4 -3 2 -38 -5 -79 -16 -41 -11 -84 -22 -95 -24 -86 -19 -122 -29 -131 -36 -6
-5 -13 -7 -16 -4 -5 5 -240 -60 -428 -120 -63 -20 -122 -38 -130 -40 -8 -2
-28 -9 -45 -15 -16 -7 -40 -14 -53 -16 -12 -3 -53 -16 -90 -30 -37 -13 -74
-26 -82 -28 -8 -2 -35 -12 -60 -21 -25 -9 -61 -21 -80 -27 -19 -5 -44 -15 -55
-21 -11 -6 -27 -12 -35 -13 -35 -6 -259 -97 -255 -104 3 -4 -5 -8 -18 -8 -12
0 -40 -8 -62 -17 -22 -10 -47 -19 -55 -21 -8 -2 -16 -8 -18 -14 -2 -5 -7 -8
-12 -5 -5 3 -38 -8 -73 -25 -36 -16 -70 -30 -77 -30 -6 0 -8 -5 -4 -12 4 -6 3
-8 -4 -5 -5 4 -39 -6 -74 -23 -34 -16 -69 -30 -76 -30 -7 0 -10 -5 -6 -12 4
-6 3 -8 -4 -4 -11 7 -202 -80 -214 -98 -4 -6 -8 -8 -8 -4 0 4 -45 -15 -100
-42 -55 -28 -101 -49 -102 -48 -2 1 -22 -11 -45 -25 -24 -15 -47 -27 -53 -27
-5 0 -10 -5 -10 -12 0 -6 -3 -9 -6 -5 -6 6 -50 -15 -131 -62 -18 -10 -29 -22
-25 -26 4 -5 1 -5 -5 -1 -18 10 -254 -126 -243 -139 6 -7 2 -11 -10 -11 -10 0
-16 4 -13 9 3 5 -20 -7 -51 -27 -31 -20 -58 -36 -61 -36 -15 0 -124 -78 -118
-85 5 -4 3 -5 -4 -1 -15 8 -76 -28 -65 -39 4 -5 2 -5 -4 -2 -9 5 -80 -35 -94
-53 -3 -4 -16 -13 -30 -20 -73 -37 -280 -182 -274 -192 4 -7 2 -8 -5 -4 -13 8
-44 -12 -37 -23 3 -4 -3 -7 -12 -7 -9 0 -56 -29 -104 -64 -75 -54 -86 -66 -75
-79 11 -14 10 -14 -6 -2 -15 12 -20 12 -35 -3 -9 -9 -80 -64 -157 -122 -77
-59 -149 -115 -160 -125 -11 -10 -40 -35 -65 -55 -25 -20 -44 -41 -42 -46 1
-5 -1 -7 -6 -4 -5 3 -67 -45 -138 -106 -158 -135 -194 -170 -188 -180 3 -4 -1
-5 -9 -2 -8 3 -33 -16 -60 -45 -26 -28 -51 -51 -55 -53 -17 -4 -261 -256 -254
-262 4 -4 2 -6 -4 -4 -12 4 -150 -133 -146 -145 1 -5 -2 -6 -6 -3 -12 7 -44
-28 -35 -39 5 -4 3 -5 -3 -2 -7 4 -24 -9 -38 -28 -15 -19 -40 -47 -55 -62 -64
-62 -150 -167 -144 -176 3 -6 1 -7 -5 -4 -10 7 -149 -152 -144 -165 1 -5 -4
-8 -12 -8 -8 0 -18 -9 -21 -20 -3 -11 -10 -20 -14 -20 -4 0 -24 -21 -46 -47
-22 -27 -31 -41 -20 -33 11 8 -4 -9 -33 -39 -29 -30 -51 -56 -48 -58 2 -2 -10
-17 -26 -34 -18 -18 -28 -35 -24 -45 3 -8 2 -13 -3 -10 -17 11 -205 -238 -197
-260 4 -9 2 -12 -5 -8 -11 6 -46 -35 -41 -48 1 -5 -2 -8 -6 -8 -11 0 -178
-239 -174 -251 1 -5 -2 -9 -7 -9 -11 0 -64 -81 -64 -97 0 -7 -4 -13 -9 -13 -4
0 -8 -7 -8 -15 0 -7 -6 -18 -12 -22 -27 -17 -231 -345 -231 -370 0 -7 -3 -11
-5 -8 -7 7 -51 -68 -46 -77 3 -5 1 -8 -4 -8 -11 0 -58 -90 -54 -103 1 -5 -1
-6 -6 -3 -7 4 -52 -74 -51 -89 0 -3 -9 -17 -20 -32 -12 -14 -18 -29 -15 -34 3
-5 1 -9 -4 -9 -5 0 -30 -42 -57 -92 -26 -51 -52 -98 -57 -105 -5 -7 -6 -18 -2
-25 4 -7 3 -9 -1 -5 -13 12 -53 -75 -41 -91 6 -9 5 -11 -5 -7 -10 4 -25 -17
-49 -67 -19 -40 -34 -79 -33 -86 0 -7 -1 -11 -5 -8 -4 5 -111 -213 -116 -239
-1 -5 -12 -29 -24 -51 -11 -23 -18 -44 -15 -48 4 -3 2 -6 -3 -6 -6 0 -16 -17
-24 -37 -7 -21 -29 -72 -48 -113 -19 -41 -35 -85 -36 -97 0 -11 -4 -19 -7 -17
-10 6 -50 -106 -42 -118 3 -6 1 -8 -5 -4 -8 5 -26 -30 -37 -74 -1 -3 -7 -18
-14 -35 -123 -292 -402 -1133 -466 -1403 -3 -9 -23 -84 -45 -166 -22 -82 -38
-151 -35 -154 3 -3 1 -10 -3 -16 -5 -6 -16 -42 -26 -81 -9 -38 -23 -95 -31
-125 -8 -30 -16 -68 -18 -85 -3 -16 -8 -37 -11 -45 -29 -73 -242 -1200 -235
-1243 1 -7 -1 -19 -4 -27 -3 -8 -20 -116 -37 -240 -17 -124 -33 -242 -36 -262
-6 -41 -4 -43 56 -52 43 -6 785 -95 850 -101 25 -3 225 -27 445 -54 220 -27
423 -52 450 -55 28 -3 106 -12 175 -21 69 -8 143 -17 165 -20 22 -3 96 -11
165 -19 117 -14 307 -37 580 -70 63 -7 122 -14 130 -14 8 -1 123 -15 255 -31
132 -17 263 -33 290 -35 28 -3 84 -10 125 -15 41 -6 98 -13 125 -16 28 -3 104
-12 170 -20 66 -8 138 -17 160 -20 22 -3 157 -19 300 -35 142 -17 267 -29 277
-27 11 3 15 1 12 -5 -4 -6 -1 -9 7 -6 8 3 15 15 17 29 7 60 87 503 124 689 22
113 42 214 44 225 2 11 16 76 33 145 16 68 27 128 25 132 -2 3 0 9 5 12 7 5
17 47 26 111 1 6 5 17 8 25 3 8 24 87 46 175 22 88 45 175 51 194 5 19 8 37 5
39 -3 3 -1 10 4 16 5 6 21 54 35 106 33 115 137 452 166 535 11 33 21 61 21
62 0 2 2 8 4 15 3 7 26 72 51 143 53 149 86 237 103 280 41 98 60 158 54 168
-3 6 -1 7 5 3 7 -4 12 -2 12 4 0 7 16 48 36 93 20 45 37 87 38 92 1 6 10 25
19 43 10 18 15 38 11 44 -4 6 -3 8 3 5 6 -4 18 14 28 41 10 26 27 66 37 89 10
24 18 46 18 49 -1 4 2 10 7 13 16 11 54 92 48 102 -4 5 -2 9 3 9 10 0 75 128
75 148 0 6 4 12 8 12 4 0 28 41 53 90 26 50 44 90 41 90 -4 0 0 6 7 14 8 7 49
76 93 152 43 77 89 157 103 179 14 22 37 58 50 80 14 22 38 59 54 83 16 23 26
42 21 42 -4 0 -3 4 4 8 21 13 92 125 86 135 -3 6 -1 7 5 3 7 -4 12 -3 12 3 0
5 12 23 26 40 14 17 22 31 17 31 -4 0 -3 4 3 8 19 12 207 266 207 280 0 6 2
10 5 8 4 -5 59 54 60 64 0 3 19 25 41 49 22 24 38 48 35 53 -3 5 -1 7 4 6 5
-2 26 17 47 42 20 25 63 74 94 109 31 35 55 68 53 72 -1 5 2 8 6 7 9 -3 103
88 144 139 15 19 30 34 35 35 4 0 7 3 6 7 -1 4 12 16 28 26 16 11 27 26 24 33
-3 7 0 10 5 7 11 -7 116 92 112 107 -1 5 2 7 6 4 9 -5 78 52 155 127 16 15 38
32 49 38 11 6 17 17 14 25 -3 8 -2 13 3 9 5 -3 16 2 25 10 8 9 19 16 23 16 4
1 7 5 5 11 -1 5 1 7 6 4 4 -3 27 12 50 33 23 21 42 36 42 34 0 -3 7 0 15 7 8
7 12 16 9 21 -3 5 0 8 8 7 7 -2 12 3 10 10 -1 8 2 11 8 7 6 -4 17 -1 26 5 12
10 12 16 2 29 -12 14 -11 14 4 2 16 -12 24 -9 68 25 27 21 50 42 50 46 0 4 3
7 8 6 4 -2 41 22 82 52 99 72 311 214 378 251 30 18 49 35 46 41 -4 7 -2 8 4
4 12 -7 116 47 107 56 -3 2 1 5 7 5 22 1 118 59 111 67 -4 4 1 4 11 0 15 -6
17 -4 11 6 -6 9 -4 11 4 6 7 -5 20 -2 29 6 9 8 32 20 50 28 17 7 32 17 32 23
0 6 3 8 6 4 4 -3 63 23 133 57 137 70 243 119 279 130 12 4 19 12 16 18 -4 6
-3 8 3 5 12 -7 73 14 73 25 0 4 9 8 20 8 11 0 75 22 142 49 149 59 552 195
638 216 3 1 24 5 47 9 24 4 45 12 49 17 3 5 10 7 15 3 5 -3 16 0 24 6 8 7 15
10 15 7 0 -3 15 -1 33 4 17 6 44 12 59 14 15 2 45 9 66 15 46 12 216 49 252
55 14 2 108 17 210 34 345 57 614 84 1010 102 220 10 815 7 851 -5 8 -2 66 -7
130 -10 156 -9 520 -50 709 -81 154 -25 388 -70 424 -81 14 -5 16 -3 11 7 -6
9 -2 9 11 -2 10 -9 44 -21 74 -28 30 -6 66 -14 80 -17 14 -3 32 -7 40 -8 9 -1
20 -5 25 -8 6 -3 28 -10 50 -14 48 -10 46 -9 65 -16 66 -25 195 -58 208 -53 9
3 13 3 9 -2 -9 -8 273 -104 285 -97 4 3 8 1 8 -4 0 -9 40 -25 65 -26 6 -1 16
-7 23 -13 7 -7 26 -13 40 -13 15 0 36 -6 47 -14 35 -24 168 -76 178 -69 6 3 7
1 3 -5 -4 -7 -3 -12 3 -12 13 0 263 -110 276 -121 5 -5 14 -9 20 -9 5 0 3 5
-5 10 -9 6 -10 10 -3 10 7 0 17 -8 22 -17 6 -10 11 -13 11 -8 0 6 3 5 8 -1 10
-16 128 -74 136 -67 3 4 6 2 6 -4 0 -5 21 -21 48 -34 26 -13 73 -39 105 -57
31 -18 62 -30 69 -26 6 4 8 3 4 -4 -6 -11 30 -28 49 -23 6 1 7 -1 2 -5 -10
-10 71 -57 85 -48 6 4 8 3 5 -3 -3 -5 12 -21 35 -34 23 -13 58 -34 77 -46 20
-12 50 -30 66 -39 17 -9 47 -30 68 -46 20 -16 37 -27 37 -23 0 3 10 -3 22 -15
12 -11 25 -20 29 -20 4 0 21 -12 38 -26 17 -14 36 -22 42 -18 8 4 9 3 5 -4 -4
-7 -3 -12 2 -12 5 0 20 -9 33 -21 13 -11 59 -46 102 -76 68 -48 80 -53 95 -41
15 11 16 11 4 -3 -11 -14 -4 -23 50 -68 35 -28 69 -49 76 -46 7 3 10 1 7 -4
-3 -6 11 -22 32 -38 20 -15 48 -39 62 -52 15 -13 42 -35 61 -50 19 -14 37 -29
40 -32 22 -28 115 -97 124 -92 6 3 8 3 4 -2 -10 -10 11 -37 23 -29 5 3 9 0 9
-6 0 -14 61 -66 73 -62 5 1 6 -2 3 -7 -3 -4 24 -36 59 -69 36 -33 65 -59 65
-57 0 1 30 -27 66 -64 37 -36 71 -65 76 -63 5 1 7 -1 4 -6 -2 -4 15 -27 40
-50 24 -24 44 -47 44 -53 0 -6 4 -8 9 -4 5 3 12 -3 16 -13 7 -25 71 -83 81
-74 4 4 4 2 1 -4 -7 -12 56 -78 65 -69 3 4 5 -2 5 -12 -1 -11 4 -17 13 -15 8
2 12 1 8 -3 -7 -7 141 -189 183 -227 11 -9 19 -21 19 -28 0 -6 5 -8 10 -5 6 3
10 0 10 -8 0 -8 18 -33 40 -56 22 -22 40 -44 40 -49 0 -4 16 -24 35 -45 19
-21 35 -40 35 -43 0 -11 103 -144 111 -144 6 0 8 -4 5 -9 -4 -5 6 -19 21 -31
16 -12 22 -18 15 -15 -8 4 10 -27 39 -69 45 -64 55 -74 68 -63 14 10 14 10 3
-5 -12 -14 -11 -20 1 -38 7 -11 17 -17 22 -12 5 4 5 2 2 -4 -8 -14 27 -66 38
-57 4 5 5 3 2 -3 -5 -9 61 -125 95 -165 7 -9 14 -22 16 -30 2 -8 13 -22 25
-32 12 -10 16 -16 9 -12 -7 3 1 -15 18 -42 16 -26 36 -64 45 -83 9 -19 26 -45
37 -57 12 -13 18 -23 14 -23 -9 0 74 -152 88 -162 6 -4 7 -8 3 -8 -5 0 -1 -12
7 -27 26 -46 126 -264 126 -274 0 -5 4 -9 8 -9 5 0 9 -6 9 -12 0 -7 14 -45 31
-85 18 -39 32 -76 32 -82 0 -6 4 -11 8 -11 4 0 8 -8 9 -17 1 -10 9 -36 19 -58
10 -22 19 -44 20 -50 1 -5 22 -66 46 -135 53 -151 60 -173 59 -182 -1 -5 4 -8
10 -8 5 0 8 -4 5 -9 -5 -8 19 -105 32 -126 3 -5 7 -16 8 -25 1 -8 13 -60 28
-115 15 -55 29 -110 32 -123 2 -13 16 -76 30 -140 91 -421 134 -847 134 -1332
0 -516 -41 -887 -147 -1330 -13 -58 -26 -114 -27 -125 -1 -12 -5 -25 -8 -31
-5 -7 -28 -90 -43 -149 -1 -5 -5 -17 -8 -25 -25 -61 -65 -195 -61 -202 3 -4 0
-8 -5 -8 -6 0 -10 -3 -9 -7 1 -5 -4 -21 -11 -38 -7 -16 -14 -34 -15 -40 -2 -5
-9 -23 -15 -40 -7 -16 -14 -34 -15 -40 -1 -5 -5 -16 -9 -22 -5 -7 -5 -13 0
-13 4 0 3 -4 -3 -8 -11 -8 -50 -103 -46 -114 1 -5 -2 -8 -6 -8 -6 0 -31 -53
-37 -80 -3 -10 -172 -346 -203 -401 -17 -31 -30 -58 -29 -60 1 -2 0 -3 -2 -2
-9 6 -91 -150 -84 -160 3 -6 1 -7 -6 -3 -6 4 -14 0 -18 -11 -4 -10 -13 -24
-20 -31 -7 -8 -10 -19 -6 -25 3 -7 3 -9 -1 -5 -8 6 -136 -175 -136 -193 0 -5
-5 -9 -11 -9 -5 0 -8 -4 -5 -9 3 -5 0 -11 -8 -14 -8 -3 -20 -17 -28 -31 -7
-14 -48 -70 -91 -126 -43 -55 -75 -106 -71 -112 4 -6 3 -8 -4 -4 -6 3 -38 -29
-74 -75 -35 -45 -80 -101 -100 -124 -21 -23 -38 -45 -38 -48 0 -3 -15 -21 -32
-40 -44 -45 -74 -88 -70 -99 1 -5 -1 -7 -6 -4 -8 4 -62 -46 -62 -57 0 -2 -19
-24 -42 -48 -24 -25 -61 -67 -83 -93 -22 -27 -55 -63 -74 -81 -22 -21 -31 -37
-26 -45 5 -8 4 -11 -2 -7 -12 7 -180 -170 -175 -185 1 -5 -2 -7 -7 -4 -12 8
-92 -85 -84 -97 3 -6 1 -7 -6 -3 -6 4 -14 0 -17 -8 -3 -9 -10 -14 -14 -11 -5
3 -11 -4 -15 -15 -3 -11 -9 -19 -13 -17 -4 1 -8 -1 -10 -5 -1 -4 -21 -27 -45
-50 -23 -23 -41 -46 -39 -51 1 -4 -1 -6 -6 -3 -11 6 -54 -38 -47 -47 3 -4 2
-5 -2 -2 -10 8 -33 -16 -26 -28 3 -5 2 -7 -4 -4 -13 8 -86 -67 -76 -78 5 -4 3
-5 -3 -2 -14 8 -57 -36 -47 -47 5 -4 1 -6 -7 -4 -8 2 -14 -3 -13 -9 2 -7 -3
-12 -10 -10 -6 1 -11 -4 -9 -11 1 -8 -2 -11 -6 -8 -12 7 -44 -28 -35 -39 5 -4
3 -6 -2 -2 -12 6 -112 -92 -107 -106 1 -5 -2 -6 -7 -3 -5 3 -21 -7 -34 -24
-14 -16 -28 -30 -32 -30 -13 0 -54 -53 -48 -63 3 -5 1 -7 -4 -4 -14 9 -84 -53
-76 -66 3 -6 2 -7 -4 -4 -5 3 -36 -22 -69 -55 -32 -34 -50 -55 -39 -47 18 13
19 13 7 -3 -8 -9 -19 -15 -26 -12 -7 3 -19 -3 -27 -12 -12 -15 -12 -17 0 -9
10 6 12 4 7 -4 -5 -7 -11 -10 -14 -7 -7 7 -157 -136 -154 -146 1 -5 -1 -7 -6
-6 -7 3 -50 -35 -173 -153 -33 -30 -59 -54 -59 -53 0 5 -117 -103 -159 -146
-23 -25 -47 -45 -53 -45 -5 0 -23 -16 -41 -36 -18 -19 -51 -50 -74 -68 -24
-18 -42 -38 -40 -44 1 -7 -4 -11 -12 -9 -18 4 -82 -58 -74 -71 3 -6 1 -7 -5
-3 -7 4 -12 2 -12 -5 0 -7 -3 -9 -6 -6 -4 4 -26 -12 -49 -36 -24 -23 -66 -62
-95 -87 -151 -131 -233 -204 -268 -238 -32 -32 -33 -34 -15 -48 17 -14 17 -14
-4 -4 -15 7 -29 7 -40 1 -26 -13 -73 -68 -65 -76 3 -3 -2 -3 -13 1 -14 6 -17
4 -12 -9 3 -9 1 -19 -5 -23 -7 -4 -8 -3 -4 4 17 28 -11 7 -78 -55 -39 -37 -70
-71 -68 -76 1 -5 -1 -6 -6 -3 -5 3 -20 -7 -33 -22 -18 -20 -19 -23 -4 -12 18
14 19 14 6 -2 -7 -10 -17 -15 -22 -13 -8 6 -95 -68 -154 -129 -16 -17 -55 -52
-85 -77 -30 -26 -86 -77 -125 -114 -38 -37 -85 -79 -102 -92 -18 -14 -30 -29
-27 -34 3 -5 1 -8 -4 -7 -11 4 -88 -72 -85 -83 2 -5 -5 -5 -14 -2 -12 5 -15 2
-10 -10 4 -10 2 -14 -6 -11 -15 5 -120 -100 -110 -110 4 -4 -1 -4 -12 0 -14 6
-17 4 -12 -9 3 -9 3 -16 -1 -16 -23 4 -34 -3 -28 -17 4 -9 2 -13 -6 -8 -6 4
-31 -14 -58 -42 -26 -27 -59 -59 -74 -71 -16 -13 -24 -28 -20 -34 4 -7 3 -9
-4 -5 -14 8 -84 -53 -75 -67 3 -5 2 -7 -4 -4 -13 8 -55 -37 -46 -49 5 -5 4 -6
-1 -2 -13 11 -37 -12 -29 -26 3 -6 3 -8 -2 -4 -11 11 -36 -12 -28 -25 4 -6 1
-7 -6 -3 -8 5 -58 -37 -139 -118 -69 -69 -130 -126 -135 -126 -4 0 -5 -4 -2
-10 3 -5 1 -10 -5 -10 -6 0 -8 -5 -4 -12 4 -7 3 -8 -5 -4 -15 10 -194 -171
-185 -186 4 -6 2 -8 -4 -4 -12 7 -264 -239 -254 -248 3 -3 -3 -6 -13 -6 -10 0
-16 -2 -13 -5 2 -3 -35 -44 -84 -92 -56 -56 -86 -93 -82 -103 3 -8 2 -11 -2
-7 -10 10 -75 -54 -67 -66 3 -6 1 -7 -4 -4 -14 9 -125 -112 -116 -126 3 -5 1
-7 -4 -4 -6 4 -35 -21 -65 -55 -29 -34 -61 -70 -71 -81 -10 -10 -15 -23 -11
-30 4 -7 3 -9 -1 -4 -9 7 -65 -40 -65 -54 0 -5 -10 -19 -22 -32 -70 -73 -98
-109 -92 -119 4 -6 3 -8 -4 -4 -6 4 -24 -13 -42 -39 -17 -25 -42 -56 -56 -70
-14 -14 -23 -25 -20 -25 3 0 -6 -12 -20 -27 -14 -16 -34 -37 -43 -48 -10 -11
-57 -71 -104 -133 -57 -75 -84 -119 -81 -130 4 -12 3 -13 -3 -4 -7 9 -18 1
-41 -32 -17 -24 -28 -47 -24 -52 4 -5 3 -6 -2 -2 -8 6 -46 -32 -46 -46 0 -3
-11 -17 -25 -32 -14 -15 -25 -32 -25 -39 0 -7 -9 -20 -20 -30 -33 -30 -120
-162 -112 -170 4 -5 2 -5 -4 -2 -10 6 -29 -20 -24 -32 1 -2 -2 -7 -7 -10 -21
-14 -112 -154 -106 -164 3 -5 1 -7 -4 -4 -10 7 -28 -20 -25 -35 1 -5 -2 -8 -6
-8 -8 0 -45 -54 -147 -214 -20 -32 -31 -55 -24 -51 8 5 2 -5 -12 -21 -41 -45
-196 -311 -197 -338 0 -5 -4 -12 -9 -15 -15 -10 -75 -113 -61 -105 7 4 2 -4
-11 -19 -13 -15 -20 -31 -16 -38 5 -7 4 -10 -2 -6 -9 6 -50 -70 -45 -86 1 -5
-2 -6 -8 -2 -10 6 -14 -7 -10 -35 1 -8 -1 -12 -6 -8 -10 11 -87 -140 -78 -154
4 -6 3 -9 -2 -5 -5 3 -17 -11 -26 -31 -10 -21 -40 -85 -67 -143 -93 -198 -172
-390 -165 -401 4 -6 3 -8 -2 -5 -12 7 -77 -160 -68 -175 4 -6 2 -8 -3 -5 -6 4
-13 -1 -16 -11 -3 -9 -26 -75 -52 -147 -81 -226 -135 -383 -138 -402 -1 -10
-5 -22 -9 -28 -5 -8 -35 -106 -43 -140 -1 -5 -5 -17 -8 -25 -11 -30 -69 -234
-72 -254 -1 -12 -5 -28 -8 -36 -4 -8 -9 -28 -12 -45 -7 -33 -9 -43 -18 -65 -6
-18 -40 -158 -42 -180 -1 -8 -5 -22 -8 -30 -7 -19 -55 -235 -62 -281 -2 -19
-14 -77 -25 -129 -31 -142 -100 -552 -115 -685 -3 -22 -11 -89 -20 -148 -8
-60 -14 -111 -13 -115 1 -4 -2 -23 -5 -42 -7 -37 -42 -380 -52 -510 -3 -41 -9
-129 -15 -195 -5 -66 -12 -192 -15 -280 -4 -88 -9 -171 -12 -185 -17 -88 -5
-2024 13 -2107 l4 -23 2219 0 2219 0 6 93 c3 50 8 209 11 352 21 944 96 1986
190 2645 22 147 42 263 77 445 22 116 42 219 44 230 5 29 67 261 108 403 20
68 34 128 30 133 -3 5 -1 9 5 9 6 0 13 12 17 28 3 15 19 64 35 110 16 45 26
82 22 82 -3 0 0 7 7 15 7 8 9 15 4 15 -5 0 -3 4 3 8 7 4 14 17 16 27 2 11 10
34 16 50 40 96 60 158 54 168 -3 6 -1 7 5 3 7 -4 12 -2 12 4 0 6 25 68 55 137
30 69 52 130 48 136 -3 5 -1 7 5 3 6 -3 14 4 17 16 4 13 44 98 90 190 46 91
81 169 77 172 -3 3 -1 6 4 6 6 0 20 18 33 40 12 22 19 40 16 40 -4 0 1 7 9 16
9 8 32 45 52 82 45 82 73 128 141 232 29 44 50 80 48 80 -2 0 17 29 43 64 26
35 65 90 87 121 22 32 86 116 142 188 56 72 100 134 97 139 -3 5 -1 7 3 6 5
-2 24 11 41 29 32 31 42 51 20 37 -7 -4 -8 -3 -4 5 4 6 11 9 16 6 11 -7 81 80
72 90 -4 5 -2 5 5 1 7 -4 19 5 30 21 9 15 37 48 61 73 24 25 56 57 70 73 15
15 27 31 27 37 0 5 7 15 15 22 12 11 12 10 1 -7 -8 -11 -2 -7 13 8 14 16 24
33 20 38 -3 5 0 8 8 7 7 -2 12 3 10 10 -1 8 1 11 6 8 12 -7 84 68 75 79 -5 4
-3 5 3 2 14 -8 37 17 26 28 -4 5 -2 5 4 2 7 -4 23 8 37 26 13 17 50 56 80 86
31 30 54 59 51 63 -3 5 -1 7 4 6 12 -4 138 122 134 134 -1 5 1 7 6 4 12 -7 84
68 75 79 -5 4 -3 5 3 2 5 -3 60 45 121 106 60 62 171 170 246 241 75 71 134
133 131 138 -3 5 -2 7 3 6 14 -5 123 94 116 105 -3 6 -1 7 5 3 6 -3 17 2 24
11 7 10 46 47 85 82 40 34 70 68 66 74 -3 5 -2 7 4 4 12 -7 54 38 45 48 -4 4
-2 5 4 3 7 -2 37 19 68 46 41 36 53 52 46 61 -7 9 -5 16 7 26 16 13 17 12 4
-3 -11 -15 -11 -18 1 -18 20 0 139 110 131 123 -3 5 -2 7 4 4 13 -8 66 47 56
58 -5 4 -3 5 3 2 11 -6 64 33 129 97 16 17 64 59 105 95 114 98 205 185 202
193 -1 5 2 7 6 5 14 -4 141 116 135 127 -3 6 -3 8 2 4 11 -11 36 12 28 25 -3
6 -1 7 6 3 7 -5 45 23 99 72 48 43 99 89 114 102 15 13 25 28 21 33 -3 6 -1 7
4 4 12 -7 203 158 203 174 0 6 5 7 12 3 7 -5 9 -2 5 9 -4 10 -2 14 6 11 13 -5
94 74 90 88 -2 4 3 5 11 2 7 -3 31 15 53 41 23 25 44 45 47 45 14 0 44 35 39
44 -3 6 -3 8 2 4 11 -10 37 11 29 23 -3 5 -2 8 3 7 14 -5 83 54 76 65 -3 5 -2
7 4 4 11 -7 56 36 48 46 -3 4 -2 5 2 2 9 -7 34 16 27 26 -3 5 -1 8 4 7 14 -4
143 113 136 124 -3 4 0 7 8 6 7 -2 12 3 11 9 -2 7 1 12 6 10 5 -1 17 7 26 18
9 11 13 13 9 5 -5 -8 35 27 88 79 54 52 94 99 91 104 -3 6 -2 7 4 4 13 -8 159
130 155 146 -2 7 -1 9 3 6 7 -7 63 43 256 230 109 106 127 127 116 140 -10 14
-10 14 4 4 13 -11 34 6 140 114 68 70 123 131 122 135 -2 4 3 8 11 8 14 0 52
49 48 62 -1 5 2 7 7 5 10 -3 147 134 144 145 -2 4 3 7 10 5 6 -1 11 4 9 11 -1
8 1 11 5 9 5 -3 22 11 38 30 17 19 45 49 62 66 18 16 30 34 27 39 -3 5 -2 7 3
6 13 -4 113 104 107 114 -3 5 0 7 8 6 7 -2 12 3 10 10 -1 8 2 11 7 8 10 -6 61
49 61 65 0 6 5 7 10 4 9 -6 14 8 11 27 0 5 2 7 7 6 11 -4 52 34 46 43 -2 4 5
10 16 14 12 4 19 14 18 23 -2 11 3 16 15 14 15 -3 22 8 18 31 0 4 3 7 7 7 5 0
17 7 28 16 10 8 12 13 4 9 -8 -3 -5 2 7 11 23 16 144 149 238 259 57 67 111
130 138 160 51 56 122 149 120 156 -2 5 1 8 6 6 5 -1 10 1 11 5 1 3 26 32 55
64 30 32 52 61 49 66 -3 4 -1 8 4 8 17 0 144 169 136 182 -4 7 -4 10 0 6 12
-10 57 34 51 50 -2 7 -1 11 4 8 5 -4 38 33 73 80 34 47 82 108 106 137 23 28
40 57 38 64 -3 7 -1 12 5 10 15 -3 199 254 192 267 -3 6 -3 8 2 4 11 -11 38
29 29 44 -4 6 -3 8 4 4 6 -3 20 7 32 24 12 16 19 30 16 30 -3 0 4 11 15 24 12
14 27 33 33 44 6 11 39 61 74 111 34 50 66 99 69 109 4 9 20 34 36 54 18 23
26 42 21 50 -4 7 -4 10 1 6 11 -11 38 29 29 44 -4 6 -3 8 3 5 8 -5 37 38 116
178 16 27 32 55 37 60 22 28 88 163 83 169 -4 3 -2 6 4 6 11 0 77 120 65 120
-4 0 -2 4 4 8 15 9 86 152 77 152 -5 0 -3 4 3 8 10 6 83 145 84 157 0 3 11 28
25 55 14 28 23 56 19 63 -4 7 -3 9 1 5 11 -10 87 161 80 179 -2 8 -1 12 4 9
10 -7 33 42 26 55 -4 5 -2 9 3 9 8 0 91 195 96 225 1 6 5 15 8 21 16 25 67
177 62 185 -3 5 -1 9 5 9 14 0 176 498 166 508 -3 3 -1 10 4 16 9 11 70 223
76 261 1 11 5 27 9 35 8 20 55 222 62 268 9 56 11 66 17 82 9 20 62 307 87
460 154 970 157 2040 9 3050 -27 190 -84 499 -96 530 -3 8 -5 18 -5 22 2 10
-27 149 -34 168 -4 8 -8 29 -10 45 -2 17 -7 37 -10 45 -4 8 -8 28 -10 44 -3
17 -8 32 -12 35 -4 4 -8 22 -10 41 -1 19 -7 36 -12 38 -5 2 -7 9 -5 15 3 7
-13 73 -35 147 -22 74 -42 142 -44 150 -2 8 -9 35 -16 60 -19 73 -161 494
-168 500 -4 3 -9 14 -10 25 -2 11 -11 36 -19 55 -9 19 -17 42 -19 50 -8 40
-82 199 -89 193 -4 -5 -5 -3 -2 3 4 7 -6 43 -22 80 -16 38 -45 107 -65 154
-20 47 -41 87 -46 88 -6 2 -8 8 -4 13 3 5 0 9 -6 9 -6 0 -9 4 -6 8 8 13 -68
164 -78 155 -5 -4 -6 -3 -2 4 8 14 -13 63 -27 63 -6 0 -7 3 -4 6 9 9 -144 305
-154 298 -5 -3 -6 3 -2 12 5 13 3 15 -7 9 -8 -5 -11 -4 -7 2 9 14 -37 95 -48
86 -4 -5 -5 -2 -1 4 9 16 -17 56 -29 45 -5 -4 -5 -1 -1 6 9 15 -62 135 -75
127 -5 -4 -6 1 -3 10 4 9 -5 30 -20 49 -14 19 -26 37 -26 40 0 12 -64 106 -72
106 -5 0 -6 5 -3 10 3 6 1 10 -4 10 -6 0 -10 6 -9 13 2 6 -2 11 -9 10 -8 -2
-10 4 -6 14 5 12 3 14 -7 8 -8 -5 -11 -4 -7 2 4 6 -2 22 -13 36 -11 14 -20 29
-20 35 0 5 -11 21 -24 35 -13 14 -22 27 -20 29 2 2 -14 26 -34 53 -21 28 -41
58 -45 68 -4 10 -12 15 -17 12 -6 -4 -10 -3 -9 2 4 14 -19 61 -33 69 -9 5 -8
2 2 -12 14 -18 14 -18 -3 -5 -10 8 -16 20 -13 28 3 7 1 13 -4 13 -6 0 -10 6
-10 13 0 7 -13 27 -29 44 -16 18 -26 34 -23 37 3 3 1 6 -5 6 -5 0 -15 12 -21
26 -7 15 -17 22 -24 18 -6 -4 -8 -3 -5 3 6 10 -58 104 -75 111 -4 2 -8 9 -8
17 0 22 -25 36 -40 22 -12 -10 -12 -9 -2 4 11 14 2 30 -54 100 -66 85 -132
163 -104 125 15 -21 15 -21 -8 -2 -12 11 -20 21 -17 24 9 9 -90 134 -173 219
-23 23 -40 43 -36 43 3 0 1 7 -6 15 -7 8 -17 12 -23 8 -6 -3 -7 -1 -3 5 3 6
-2 15 -11 21 -10 5 -17 13 -17 18 1 4 -2 7 -7 5 -5 -1 -8 2 -7 6 5 15 -124
152 -135 145 -5 -3 -7 -2 -4 4 4 5 -4 19 -16 30 -12 11 -35 36 -51 56 -15 20
-32 34 -37 31 -5 -3 -8 0 -7 8 2 7 -3 12 -10 10 -8 -1 -11 2 -8 7 3 5 -7 20
-23 34 -17 14 -27 28 -24 31 4 3 -2 6 -12 6 -10 0 -16 2 -13 5 9 9 -60 78 -71
71 -7 -5 -8 -1 -4 10 5 14 3 16 -11 11 -9 -4 -15 -3 -12 1 7 12 -69 84 -78 75
-4 -5 -6 -3 -5 2 6 18 -22 57 -36 51 -9 -3 -12 0 -9 8 6 16 -49 59 -61 48 -5
-4 -5 -1 -1 6 8 13 -90 109 -106 104 -4 -1 -8 4 -8 11 0 7 -14 24 -30 37 -17
14 -47 42 -67 62 -20 21 -40 35 -46 31 -6 -3 -7 -1 -3 5 10 17 -13 25 -32 10
-15 -11 -15 -11 -5 2 10 13 7 21 -19 45 -18 17 -36 29 -41 27 -4 -1 -6 2 -3 7
6 10 -58 63 -68 56 -3 -3 -4 -2 -1 2 9 11 -47 63 -67 63 -11 0 -17 4 -14 9 8
12 -21 34 -34 26 -6 -4 -9 -2 -8 3 3 10 -101 112 -114 112 -4 0 -22 14 -40 30
-74 68 -132 112 -141 105 -4 -3 -5 -2 -2 2 5 6 -53 63 -65 63 -4 0 -20 12 -36
26 -63 56 -94 75 -105 68 -7 -4 -9 -3 -6 3 7 10 -48 59 -93 83 -14 7 -30 20
-36 28 -6 8 -16 12 -23 8 -6 -4 -10 -3 -9 2 3 10 -20 29 -159 125 -46 32 -83
54 -83 50 0 -4 -7 2 -15 13 -8 10 -15 16 -15 12 0 -5 -9 0 -19 10 -31 28 -50
42 -55 42 -6 0 -75 45 -94 60 -7 6 -17 8 -22 5 -6 -4 -9 -2 -8 4 4 14 -201
143 -215 135 -7 -4 -9 -4 -5 1 4 4 -13 21 -38 37 -38 24 -49 27 -62 16 -14
-10 -15 -10 -5 2 10 11 5 18 -30 38 -23 14 -48 25 -55 25 -6 0 -10 3 -7 5 5 6
-72 53 -90 56 -6 1 -25 12 -42 24 -18 12 -47 29 -65 38 -18 8 -46 23 -63 32
-16 10 -69 39 -116 64 -69 37 -89 44 -105 35 -16 -9 -17 -8 -7 5 11 12 9 17
-13 27 -14 6 -30 8 -36 5 -6 -4 -8 -3 -5 3 8 12 -81 56 -95 47 -6 -4 -8 -3 -5
3 8 13 -41 36 -55 27 -6 -4 -8 -2 -5 3 7 11 -67 48 -90 46 -7 0 -13 3 -13 7 0
11 -140 71 -150 65 -5 -3 -12 1 -17 9 -4 8 -15 16 -23 18 -8 2 -17 6 -20 10
-3 4 -15 9 -27 11 -12 1 -27 8 -35 13 -25 20 -330 144 -339 138 -5 -3 -9 -1
-9 4 0 9 -74 41 -103 46 -6 1 -18 5 -24 9 -7 5 -13 5 -13 2 0 -4 -7 1 -16 9
-8 9 -21 16 -28 16 -7 0 -53 16 -102 35 -49 19 -95 33 -102 30 -8 -3 -10 0 -6
7 5 8 2 9 -9 5 -10 -3 -17 -2 -17 3 0 6 -3 9 -7 8 -5 -1 -21 4 -38 11 -16 7
-34 14 -40 15 -5 2 -18 6 -27 10 -9 4 -22 4 -29 0 -7 -4 -9 -3 -6 3 5 8 -57
34 -93 38 -3 1 -31 11 -63 23 -32 12 -63 20 -68 17 -5 -4 -9 -2 -9 3 0 10
-104 40 -106 31 0 -2 -7 1 -15 8 -15 12 -409 129 -499 147 -14 3 -68 17 -120
31 -52 14 -104 27 -115 29 -11 1 -36 8 -55 14 -19 6 -48 13 -65 16 -16 3 -57
12 -90 21 -89 22 -644 134 -690 139 -22 2 -47 6 -55 9 -12 5 -178 31 -405 64
-22 3 -49 7 -60 9 -37 8 -489 63 -635 78 -165 17 -469 43 -610 51 -185 10
-405 22 -425 23 -11 0 -162 3 -335 6 -173 4 -355 8 -405 9 -49 2 -259 0 -465
-4z m9269 -3073 c-3 -3 -11 5 -18 17 -13 21 -12 21 5 5 10 -10 16 -20 13 -22z
m806 -805 c3 -5 2 -12 -3 -15 -5 -3 -9 1 -9 9 0 17 3 19 12 6z m-5210 -1259
c-3 -3 -11 0 -18 7 -9 10 -8 11 6 5 10 -3 15 -9 12 -12z m856 -729 c12 -16 12
-17 -2 -6 -9 7 -20 9 -24 5 -5 -4 -5 -1 -1 6 9 16 11 15 27 -5z m114 -82 c3
-5 2 -12 -3 -15 -5 -3 -9 1 -9 9 0 17 3 19 12 6z m66 -78 c12 -16 12 -17 -2
-6 -9 7 -20 9 -24 5 -5 -4 -5 -1 -1 6 9 16 11 15 27 -5z m1003 -1331 c3 -5 -1
-9 -9 -9 -8 0 -12 4 -9 9 3 4 7 8 9 8 2 0 6 -4 9 -8z m-1817 -8357 c0 -8 -4
-12 -9 -9 -5 3 -6 10 -3 15 9 13 12 11 12 -6z m-214 -180 c-3 -9 -8 -14 -10
-11 -3 3 -2 9 2 15 9 16 15 13 8 -4z m-1452 -1332 c13 -16 12 -17 -3 -4 -17
13 -22 21 -14 21 2 0 10 -8 17 -17z m-306 -262 c3 -5 2 -12 -3 -15 -5 -3 -9 1
-9 9 0 17 3 19 12 6z m-2155 -2167 c0 -8 -19 -13 -24 -6 -3 5 1 9 9 9 8 0 15
-2 15 -3z"/>
<path d="M24046 11664 c-8 -20 -8 -5228 0 -5248 6 -15 254 -16 2635 -16 l2629
0 0 2640 0 2640 -2629 0 c-2381 0 -2629 -1 -2635 -16z"/>
</g>
</svg>
